<svg id="Layer_1" data-name="Layer 1" xmlns="http://www.w3.org/2000/svg" viewBox="0 0 358 384"><defs><style>.cls-1{fill:#ef4123;}</style></defs><path class="cls-1" d="M342.32,216.2c-.71-.73-11.65-28.24-11.65-28.24s-2.93-15.67-12.38-22.77c0,0,35.52-13.85,27.14-39.17,0,0-4.93-12.39-8.38-12.94,0,0-2.73-.36-.91,2.92s18.21,28.06-26.59,41.17c0,0-7.66-5.83-20.23-1.82,0,0-6.2-3.65-.37-7.47s33.34-21.32,31.34-36.8c0,0-1.1-2.37-2.19,1.45s-14.21,16.4-29.32,23-24.42,18.22-4.75,31c0,0-1.64,4.74-13.29,3.28-9.44-1.18-35.69-5.1-68.42-1.63,2.81-2.94-1.57-10.83,1.34-14.25,3.83-4.47,3.49-21.87,3.49-21.87-1.86-27.29-6-56.7-9.16-65.16s-7.21-8-9.57-12.18,1.36-13.78,1.36-13.78,10-.81,13.67-2.76.81-3.9.81-3.9l-13.67-8.95-1.3-7.49a63.89,63.89,0,0,0-16.19-6.91c-9-2.36-10.81,3.82-10.81,3.82l-3,11.72-3.41.73c-2.14.47-4.76-.91-6.6-2-6.42-3.66-9.06,6.08-9.06,6.08s-.09,1.76,1.5,1.9,16.43-.08,16.43-.08C157,38.62,159,56.61,161.27,58c2,1.19,9.24.71,9.24.71.63,12.61-10.78,28.06-14.22,33.41s-7.18,7.61-7.72,7.83c-1.1.43-19.86,12.63-30.45,15.91s-7,17.69-7,17.69l2.14,38.3c-10.69-1.88-18.45-3.78-22.16-3.19,0,0-26.24-.91-28.42,0s-14.21.36-16.95.17-21.13-7.64-36.8,26.24c0,0-2,18.76-.17,34.06s3.45,33.9,1.82,37.72-6.38,36.44.55,55.93c0,0,12.38-16.58,4.73-53.2,0,0-3.65-28.78-1.82-35.89,0,0,4.37,15.49,17.84,34.07,0,0,7.66,11.66,2.93,21.5s-5.1,9.47-2.93,15.12,7.3,26.05,5.12,42.81c0,0-2.2,9.05,9.46,12.33,8.27,2.33,12.09,3.23,13.65,1.77a14.08,14.08,0,0,0,14.6,5c2-.44,4-.91,6.08-1.35a16.14,16.14,0,0,0,3.76-1c1.79-.9-2.21-3.5-2.87-4.07-3.19-2.75-6.93-5.43-9.19-9.06A56.19,56.19,0,0,1,67.82,341a86.94,86.94,0,0,1-3.27-12,78.58,78.58,0,0,1-1.71-12.31,49,49,0,0,1,.22-10.55c.06-.36.11-.73.18-1.08,2.54-13.3,1.08-22.78,1.08-22.78S61.6,264.47,73.81,269c8.73,3.25,19.7,13.5,53.37,18.07-2.32,7.86-4.59,14.73-4.59,14.73l2.79.42-4.43,5.8c-2.18,2.84-6.11,3.06-9.49,2.84a3.43,3.43,0,0,0-3.83,2.84l-.43.54c1.31,4.81,8.73,5,11.13,5.35s13.53-1.85,15.5-3.82a32.74,32.74,0,0,1,6-4.15l1.42,3c10.7-1.2,15.17-7.1,15.17-7.1L155,304.12a11.15,11.15,0,0,0-2.39-6.65l1-8.29c7.76.24,16.31.22,25.79-.11,0,0,1.46-2.55,2.37,5.28s-1.09,31.7.54,33.89-6,24.44-6.52,25.54.55,17.91,4.92,22.11c0,0,18.22,3.45,16.94-1.83s-9.79-20-3.41-44c0,0,7.4-6.19,6.85-10.75s2.9-21.32,6.19-20.95,4,2.73,4.18,4.74,1.1,14.38,6.21,20.77-1.11,25.87-1.28,27.32,4.91,14.21,17.67,10.56c0,0,8-.37,4.92-4.92,0,0-13.85-18.21-12-28.78,0,0,4.56-9.46,4.56-14.39a26.2,26.2,0,0,0-1.1-8s12-1.82,17.31-16.39c0,0,6-9.84,10-11.29s18-18.4,19.31-25.69,5.65-22.23,20.95-17.13c0,0,26.79-1.27,28.06-.72,0,0,12.93,8.92,19.49-.37S343.07,216.92,342.32,216.2ZM51.4,347c0-1.46-6.2-33.36-6.2-33.36s10.33,22.09,11.4,38C54.07,349.4,51.4,347.72,51.4,347Zm80.36-224,1.74,5.13,8.3-4.91,17,2.15-1.33,26.52-30,16.92-5.78-40.68Zm-17.9,10.48,5.89.43,5.54,39.81c-2.23-.28-4.36-.58-6.41-.9Z"/></svg>